<svg width="12" height="11" viewBox="0 0 12 11" fill="none" xmlns="http://www.w3.org/2000/svg">
<g filter="url(#filter0_d_1_216)">
<path d="M6 4.75C5.66848 4.75 5.35054 4.6183 5.11612 4.38388C4.8817 4.14946 4.75 3.83152 4.75 3.5C4.75 3.16848 4.8817 2.85054 5.11612 2.61612C5.35054 2.3817 5.66848 2.25 6 2.25C6.33152 2.25 6.64946 2.3817 6.88388 2.61612C7.1183 2.85054 7.25 3.16848 7.25 3.5C7.25 3.66415 7.21767 3.8267 7.15485 3.97835C7.09203 4.13001 6.99996 4.26781 6.88388 4.38388C6.76781 4.49996 6.63001 4.59203 6.47835 4.65485C6.3267 4.71767 6.16415 4.75 6 4.75ZM6 0C5.07174 0 4.1815 0.368749 3.52513 1.02513C2.86875 1.6815 2.5 2.57174 2.5 3.5C2.5 6.125 6 10 6 10C6 10 9.5 6.125 9.5 3.5C9.5 2.57174 9.13125 1.6815 8.47487 1.02513C7.8185 0.368749 6.92826 0 6 0Z" fill="white"/>
</g>
<defs>
<filter id="filter0_d_1_216" x="-1.5" y="0" width="15" height="18" filterUnits="userSpaceOnUse" color-interpolation-filters="sRGB">
<feFlood flood-opacity="0" result="BackgroundImageFix"/>
<feColorMatrix in="SourceAlpha" type="matrix" values="0 0 0 0 0 0 0 0 0 0 0 0 0 0 0 0 0 0 127 0" result="hardAlpha"/>
<feOffset dy="4"/>
<feGaussianBlur stdDeviation="2"/>
<feComposite in2="hardAlpha" operator="out"/>
<feColorMatrix type="matrix" values="0 0 0 0 0 0 0 0 0 0 0 0 0 0 0 0 0 0 0.25 0"/>
<feBlend mode="normal" in2="BackgroundImageFix" result="effect1_dropShadow_1_216"/>
<feBlend mode="normal" in="SourceGraphic" in2="effect1_dropShadow_1_216" result="shape"/>
</filter>
</defs>
</svg>
